<svg xmlns="http://www.w3.org/2000/svg" xmlns:xlink="http://www.w3.org/1999/xlink" width="57" height="58" viewBox="0 0 57 58">
    <defs>
        <filter id="a" width="117.6%" height="117.3%" x="-8.8%" y="-8.7%" filterUnits="objectBoundingBox">
            <feOffset in="SourceAlpha" result="shadowOffsetOuter1"/>
            <feGaussianBlur in="shadowOffsetOuter1" result="shadowBlurOuter1" stdDeviation="1.5"/>
            <feColorMatrix in="shadowBlurOuter1" result="shadowMatrixOuter1" values="0 0 0 0 0 0 0 0 0 0 0 0 0 0 0 0 0 0 0.2 0"/>
            <feMerge>
                <feMergeNode in="shadowMatrixOuter1"/>
                <feMergeNode in="SourceGraphic"/>
            </feMerge>
        </filter>
        <rect id="b" width="51" height="51.149" rx="25.5"/>
        <linearGradient id="c" x1="0%" y1="0%" y2="100%">
            <stop offset="0%" stop-color="#FE9150"/>
            <stop offset="100%" stop-color="#FE6446"/>
        </linearGradient>
    </defs>
    <g fill="none" fill-rule="evenodd">
        <use fill="#FFF" filter="url(#a)" transform="translate(3 3)" xlink:href="#b"/>
        <path fill="url(#c)" fill-rule="nonzero" d="M19.062 14.337c-1.124 0-2.134.46-2.852 1.195l-8.383-3.994a3.8 3.8 0 0 0 .048-.572c0-.19-.019-.377-.046-.56l8.37-3.948a3.975 3.975 0 0 0 2.862 1.204c2.175 0 3.938-1.715 3.938-3.83C23 1.714 21.237 0 19.062 0c-2.176 0-3.938 1.715-3.938 3.831 0 .19.019.376.046.559L6.8 8.339a3.972 3.972 0 0 0-2.861-1.205C1.763 7.134 0 8.85 0 10.966c0 2.116 1.763 3.83 3.938 3.83 1.124 0 2.134-.46 2.852-1.192l8.382 3.993a3.68 3.68 0 0 0-.05.572c0 2.117 1.764 3.831 3.94 3.831C21.236 22 23 20.285 23 18.169c0-2.116-1.763-3.831-3.938-3.831z" transform="translate(15 18)"/>
    </g>
</svg>
