<svg xmlns="http://www.w3.org/2000/svg" xmlns:xlink="http://www.w3.org/1999/xlink" width="16" height="16" viewBox="0 0 16 16">
    <defs>
        <linearGradient id="prefix__c" x1="0%" x2="100%" y1="0%" y2="100%">
            <stop offset="0%" stop-color="#FC9D48"/>
            <stop offset="100%" stop-color="#FF578C"/>
        </linearGradient>
        <path id="prefix__a" d="M5.995 0C3.561 0 1.462 1.453.53 3.537.19 4.29 0 5.124 0 6.002 0 9.315 2.686 12 6 12s6-2.685 6-5.998c0-.878-.188-1.712-.53-2.465C10.53 1.453 8.43 0 5.996 0z"/>
    </defs>
    <g fill="none" fill-rule="evenodd">
        <g transform="translate(2 2)">
            <mask id="prefix__b" fill="#fff">
                <use xlink:href="#prefix__a"/>
            </mask>
            <g fill="url(#prefix__c)" mask="url(#prefix__b)">
                <path d="M0 0H16V16H0z" transform="translate(-2 -2)"/>
            </g>
        </g>
        <path fill="#FEFEFE" d="M9.89 8.167h.401c.148 0 .267-.119.267-.266v-.005c-.003-.15-.126-.272-.277-.272H9.69l-.106-.275h.69c.15 0 .27-.121.27-.271 0-.15-.12-.272-.27-.272h-.89l-.486-1.324c-.074-.179-.184-.361-.346-.487-.144-.13-.342-.183-.543-.183-.2 0-.402.057-.546.183-.145.126-.272.287-.346.487l-.5 1.331H5.73c-.147 0-.266.12-.266.266v.002c.002.149.122.27.27.27l.68.005-.103.268h-.608c-.146 0-.265.119-.265.265 0 .148.118.268.265.27l.404.008-.662 1.772c-.038.073-.056.182-.07.315 0 .144.074.288.183.396.127.109.275.161.438.161.271.018.525-.164.6-.434l.253-.757h2.342l.253.774c.074.253.328.431.6.414.106 0 .197-.021.29-.074.073-.056.147-.126.2-.2.056-.087.074-.196.074-.287-.021-.109-.039-.217-.074-.308l-.645-1.772zm-2.66.272l.78-2.372.793 2.372H7.23z"/>
    </g>
</svg>
