<svg xmlns="http://www.w3.org/2000/svg" width="26" height="14" viewBox="0 0 26 14">
    <g fill="none" fill-rule="evenodd">
        <g fill="#FE7E4C" fill-rule="nonzero">
            <path d="M310.19 394.203c.133-.209.413-.264.618-.13.208.132.268.41.132.613l-2.108 3.222c3.802 1.846 6.368 5.325 6.368 9.316 0 .245-.014.486-.035.726h-25.128c-.021-.24-.037-.481-.037-.726 0-3.991 2.564-7.47 6.368-9.316l-2.11-3.222c-.135-.203-.075-.48.132-.613.207-.134.49-.079.623.13l2.181 3.333c1.643-.665 3.47-1.038 5.406-1.038 1.934 0 3.765.373 5.404 1.038zm-13.416 7.084c-.668 0-1.21.531-1.21 1.195 0 .663.542 1.196 1.21 1.196.668 0 1.21-.533 1.21-1.196 0-.664-.538-1.195-1.21-1.195zm11.65 0c-.668 0-1.21.531-1.21 1.195 0 .663.542 1.196 1.21 1.196.67 0 1.208-.533 1.208-1.196 0-.664-.538-1.195-1.208-1.195z" transform="translate(-290 -394)"/>
        </g>
    </g>
</svg>
