<svg xmlns="http://www.w3.org/2000/svg" width="64" height="64" viewBox="0 0 64 64">
    <g fill="none" fill-rule="nonzero">
        <circle cx="31.944" cy="31.944" r="31.944" fill="#00D700"/>
        <path fill="#01BE01" d="M58.698 14.525L30.447 43.774l.05 3.144h1.298l30.597-24.657c-.899-2.745-2.147-5.39-3.694-7.736z"/>
        <path fill="#F2F1EF" d="M63.29 13.127l-5.64-5.59c-.75-.749-1.997-.749-2.795 0L30.746 32.444 20.315 22.16c-.75-.748-1.997-.748-2.795 0l-4.992 4.942a1.958 1.958 0 0 0 0 2.745L29.2 46.37c.45.45 1.048.6 1.647.55.6.05 1.198-.1 1.647-.55L63.29 15.922c.749-.798.749-2.046 0-2.795z"/>
        <path fill="#E6E5E3" d="M32.493 46.37L63.29 15.921a1.958 1.958 0 0 0 0-2.745l-.898-.848-31.596 31.046-17.47-17.02-.748.748a1.958 1.958 0 0 0 0 2.745L29.25 46.37c.45.45 1.048.6 1.647.55.55.05 1.148-.1 1.597-.55z"/>
    </g>
</svg>
