<svg xmlns="http://www.w3.org/2000/svg" width="29" height="32" viewBox="0 0 29 32">
    <g fill="none" fill-rule="evenodd">
        <path fill="#00D400" stroke="#E2E2E2" stroke-width="2" d="M14.5 31c3.263 0 7.145-1.112 9.911-3.882C26.554 24.972 28 21.83 28 17.478V4.594C23.519 2.204 19.039 1 14.556 1 10.069 1 5.55 2.205 1 4.599v12.83c0 4.373 1.446 7.527 3.588 9.68C7.354 29.887 11.238 31 14.5 31z"/>
        <path fill="#FFF" fill-opacity=".2" d="M14.556 0C19.37 0 24.186 1.333 29 4v8.512c-3.061 1.997-6.796 3.084-10.769 2.883C10.45 15 4.113 9.785 2.165 2.905 6.323.968 10.453 0 14.555 0z"/>
        <path fill="#000" fill-opacity=".04" d="M13.653 23.505c4.721-2.527 10.214-2.23 14.144.339C25.277 29.75 19.277 32 14.5 32c-2.271 0-4.82-.509-7.138-1.68 1.135-2.753 3.296-5.213 6.291-6.815z"/>
        <path fill="#FFF" fill-rule="nonzero" d="M20.829 10.333l-9.014 8.926-3.644-3.608c-.215-.212-.506-.332-.81-.332-.304 0-.596.12-.81.333-.216.213-.337.501-.337.803 0 .3.121.59.337.803l4.454 4.41c.214.213.506.332.81.332.304 0 .596-.12.811-.333l.002-.003 9.822-9.726c.215-.213.336-.502.336-.803 0-.3-.121-.59-.336-.802-.215-.213-.507-.333-.81-.333-.305 0-.596.12-.811.333z"/>
    </g>
</svg>
